<svg xmlns="http://www.w3.org/2000/svg" width="350.465" height="57.473" viewBox="0 0 350.465 57.473">
  <g id="Grupo_3" data-name="Grupo 3" transform="translate(-610.283 1399.192)">
    <path id="Trazado_11" data-name="Trazado 11" d="M400.785,605.9a1.31,1.31,0,0,0,1.654-.691c1.1-1.765,2.267-3.484,3.43-5.206.9-1.339,1.844-2.653,2.766-3.979,1.272-1.829,2.56-3.647,3.81-5.491,1.2-1.768,2.349-3.569,3.54-5.342,1.072-1.595,2.121-3.208,3.278-4.74a2.844,2.844,0,0,1,2.444-1.253c1.112.047,2.229-.011,3.343.013,2.358.053,3.358,1.059,3.359,3.428q.009,24.84,0,49.68a3.576,3.576,0,0,1-3.732,3.772q-1.272.02-2.546,0a3.767,3.767,0,0,1-3.836-3.89c-.023-1.645-.006-3.29-.006-4.936q0-12.579-.006-25.159a3.76,3.76,0,0,0-.015-.95c-.1-.366-.24-.914-.5-1.005-.563-.2-.56.448-.777.777q-1.722,2.6-3.476,5.185c-1.28,1.891-2.554,3.783-3.858,5.657-1.133,1.627-2.3,3.229-3.457,4.837-.844,1.172-1.635,2.389-2.568,3.486a3.322,3.322,0,0,1-4.444.117,33.912,33.912,0,0,1-2.773-3.554c-1.22-1.744-2.341-3.559-3.544-5.316-1.257-1.837-2.579-3.629-3.836-5.466-1.111-1.625-2.141-3.307-3.274-4.915a6.674,6.674,0,0,0-1.455-1.1,7.783,7.783,0,0,0-.226,1.169q0,15.285.006,30.57a12.414,12.414,0,0,1-.085,1.429,3.256,3.256,0,0,1-3.353,3.055c-.742.026-1.494-.067-2.226.021a3.7,3.7,0,0,1-2.647-.846,2.561,2.561,0,0,1-1.282-2.393c.035-.422,0-.849,0-1.274q0-24.2,0-48.406c0-.425-.017-.85.011-1.274a2.693,2.693,0,0,1,2.45-2.629c1.581-.113,3.179.007,4.768-.025a2.4,2.4,0,0,1,1.907,1.263c1.279,1.7,2.362,3.547,3.541,5.323q1.559,2.341,3.162,4.652c1.306,1.88,2.64,3.738,3.953,5.612,1.964,2.8,3.929,5.605,5.871,8.422a8.808,8.808,0,0,1,.627,1.37" transform="translate(235.798 -1977.865)" fill="#fff"/>
    <path id="Trazado_12" data-name="Trazado 12" d="M509.162,607.551q0-11.862,0-23.727c0-.742-.005-1.488.053-2.228a2.532,2.532,0,0,1,2.178-2.313,5.267,5.267,0,0,1,.793-.059c7.856.012,15.712.076,23.567.014a20.652,20.652,0,0,1,6.963,1.421,15.783,15.783,0,0,1,6.391,3.73,16.528,16.528,0,0,1,3.973,5.474,18.782,18.782,0,0,1,1.61,7.487,16.127,16.127,0,0,1-.523,2.619,6.016,6.016,0,0,0-.2.761c-.232,3.063-2.012,5.33-3.927,7.493a16,16,0,0,1-6.58,4.333c-1.025.379-1.151,1.083-.469,1.9.928,1.118,1.767,2.309,2.658,3.458,1.147,1.481,2.309,2.951,3.464,4.426,2.136,2.727,4.307,5.428,6.387,8.2a3.3,3.3,0,0,1,.619,3.283,3.231,3.231,0,0,1-2.949,2.239,30.264,30.264,0,0,1-4.456,0,4.352,4.352,0,0,1-3.028-1.84c-1.992-2.509-3.941-5.053-5.88-7.606-1.6-2.116-3.156-4.273-4.756-6.394-1.1-1.452-2.185-2.913-3.368-4.292a3.15,3.15,0,0,0-2.532-1.1c-2.81.023-5.621-.058-8.433-.094a1.983,1.983,0,0,0-1.944,1.7c-.037.369-.011.743-.011,1.114q0,6.69,0,13.377c0,.584,0,1.169-.033,1.751-.14,2.237-1.371,3.379-3.661,3.41a19,19,0,0,0-2.068.017,4.3,4.3,0,0,1-3.173-1.219,1.751,1.751,0,0,1-.556-1.071,15.223,15.223,0,0,1-.109-2.221q-.009-12.024,0-24.047m9.683-2.557a11.893,11.893,0,0,0,1.709.266q7.238,0,14.473-.046a11.047,11.047,0,0,0,5.876-1.873,7.315,7.315,0,0,0,3.7-6.508,6.809,6.809,0,0,0-4.9-6.907,17.584,17.584,0,0,0-6.669-1.215c-4.025.139-8.057.034-12.087.032-.264,0-.531-.019-.794,0a1.3,1.3,0,0,0-1.343,1.29c-.029.37-.037.742-.037,1.112q0,6.044,0,12.088c0,.522.045,1.042.077,1.759" transform="translate(235.798 -1977.865)" fill="#fff"/>
    <path id="Trazado_13" data-name="Trazado 13" d="M627.49,607.371c0-8.121.013-16.241-.016-24.361a4.036,4.036,0,0,1,.865-2.633,2.551,2.551,0,0,1,2.138-1.141c.9-.006,1.8-.027,2.706-.027q16.082,0,32.162,0c.584,0,1.171-.011,1.751.039a2.977,2.977,0,0,1,2.759,2.768c.065,1.324.058,2.656-.007,3.98a2.944,2.944,0,0,1-2.5,2.668,15.446,15.446,0,0,1-2.065.072q-12.739.008-25.476.009c-2.052,0-2.166.118-2.17,2.136q-.012,4.855-.011,9.713c0,1.622.195,1.813,1.852,1.814,7.536.006,15.073-.015,22.609.02a8,8,0,0,1,2.609.483,2.893,2.893,0,0,1,2.011,3.007c-.012.743.006,1.487.005,2.23-.007,2.667-1.469,4.1-4.213,4.1q-11.145.009-22.291,0c-2.551,0-2.56,0-2.569,2.5q-.015,4.617-.008,9.234c0,2.069.106,2.163,2.146,2.162,8.7,0,17.409.013,26.112-.018a5.846,5.846,0,0,1,2.871.727,1.989,1.989,0,0,1,1.23,1.716c.05,1.7.085,3.4-.013,5.086-.063,1.069-1.564,2.254-2.814,2.416a7.4,7.4,0,0,1-.955.022c-11.516,0-23.033-.017-34.55.015a4.217,4.217,0,0,1-3.692-1.958,3.475,3.475,0,0,1-.484-2.263c-.017-5.572-.01-11.145-.01-16.718v-7.8Z" transform="translate(235.798 -1977.865)" fill="#fff"/>
    <path id="Trazado_14" data-name="Trazado 14" d="M579.184,607.2c2.295-2.374,4.477-4.639,6.668-6.9q6.156-6.34,12.322-12.671c2.487-2.55,4.973-5.1,7.512-7.6a2.763,2.763,0,0,1,1.655-.756c1.959-.09,3.929-.111,5.887-.005a2.844,2.844,0,0,1,2.733,3.24,2.38,2.38,0,0,1-.426,1.151,24.246,24.246,0,0,1-2.132,2.561c-4.246,4.256-8.532,8.469-12.784,12.718-1.631,1.628-3.213,3.3-4.8,4.97-.725.762-.749,1.25-.085,2.006a36.239,36.239,0,0,1,3.29,3.737,51.315,51.315,0,0,0,3.428,4.249c2.534,3.1,4.976,6.269,7.486,9.386,1.762,2.189,3.574,4.339,5.362,6.508.464.563.957,1.106,1.372,1.7a2.563,2.563,0,0,1-.147,2.656,3.842,3.842,0,0,1-3.843,1.951,16.586,16.586,0,0,0-2.863-.009,3.825,3.825,0,0,1-3.414-1.559c-1.261-1.512-2.53-3.02-3.782-4.541q-3.369-4.094-6.722-8.2-2.377-2.9-4.749-5.8-1.128-1.383-2.222-2.794c-.786-1.009-1.268-1.031-2.209-.086-2.4,2.411-4.762,4.866-7.238,7.2a2.909,2.909,0,0,0-.9,2.394c.012,3.078-.059,6.16.048,9.235A4.091,4.091,0,0,1,576.4,635.8a1.515,1.515,0,0,1-.732.249,39.34,39.34,0,0,1-4.135-.005,3.9,3.9,0,0,1-3.053-3.2c-.033-.477-.033-.956-.033-1.432q0-24.042,0-48.085a4.171,4.171,0,0,1,.484-2.447,3.176,3.176,0,0,1,3.008-1.687c1.217.058,2.441-.01,3.659.049a3.074,3.074,0,0,1,2.96,2.932c.065.952.04,1.91.04,2.865.005,6.635,0,13.27.019,19.9a2.591,2.591,0,0,0,.571,2.259" transform="translate(235.798 -1977.865)" fill="#fff"/>
    <path id="Trazado_15" data-name="Trazado 15" d="M455.718,621.855c-1.11,2.247-2.149,4.293-3.132,6.366-.516,1.087-.879,2.248-1.413,3.326-.751,1.52-1.1,3.361-2.939,4.1a5.027,5.027,0,0,1-1.466.431c-.95.068-1.917-.058-2.864.034-1.671.163-3.056-1.166-3.695-2.649a1.568,1.568,0,0,1-.054-1.084c.4-1.022.894-2.009,1.355-3.007q.622-1.349,1.255-2.692c1.025-2.17,2.087-4.324,3.074-6.511.836-1.854,1.54-3.768,2.393-5.612.872-1.886,1.869-3.712,2.784-5.578.391-.795.7-1.629,1.071-2.432,1.035-2.231,2.107-4.445,3.122-6.685,1.163-2.568,2.245-5.173,3.43-7.73,1.207-2.605,2.514-5.164,3.743-7.759.513-1.082.843-2.259,1.427-3.3a3.573,3.573,0,0,1,2.18-2.066,12.585,12.585,0,0,1,4.417-.253c2.019.186,2.864,1.642,3.6,3.278.853,1.911,1.793,3.783,2.692,5.673.444.937.9,1.868,1.321,2.815,1.17,2.636,2.286,5.3,3.5,7.911,1.186,2.555,2.5,5.049,3.693,7.6.859,1.839,1.56,3.752,2.41,5.6.81,1.756,1.725,3.462,2.583,5.2.414.837.826,1.677,1.2,2.531.844,1.915,1.629,3.858,2.5,5.759.844,1.832,1.83,3.6,2.629,5.451a6.029,6.029,0,0,1,.439,2.469,3.164,3.164,0,0,1-3.192,3.05c-.9.034-1.809-.053-2.7.025-2.435.215-3.723-1.363-4.582-3.338q-1.254-2.879-2.542-5.746c-.533-1.188-1.172-2.333-1.63-3.548-.5-1.325-.88-1.706-2.271-1.708-3.609-.006-7.219,0-10.828,0-3.874,0-7.749-.008-11.624,0-.631,0-1.262.057-1.88.086m20.975-9.837a3.508,3.508,0,0,0-.1-.772q-1.1-2.527-2.23-5.04c-.424-.943-.895-1.865-1.3-2.813-.47-1.094-.862-2.222-1.349-3.307-.579-1.287-1.3-2.514-1.811-3.823a4.317,4.317,0,0,0-1.587-2.075c-.866,1.837-1.687,3.584-2.514,5.326-.332.7-.717,1.38-1.016,2.1-.458,1.1-.8,2.249-1.3,3.32-.874,1.843-1.88,3.625-2.743,5.472a5.26,5.26,0,0,0-.163,1.686,5.528,5.528,0,0,0,.926.188q6.915.022,13.829.013a7.363,7.363,0,0,0,1.37-.27" transform="translate(235.798 -1977.865)" fill="#fff"/>
    <path id="Trazado_16" data-name="Trazado 16" d="M707.433,588.917c-.055.821-.139,1.5-.139,2.17q-.015,20.136-.012,40.269c0,.318,0,.636,0,.955-.051,2.465-1.353,3.756-3.819,3.784-.795.008-1.591.02-2.387,0a3.088,3.088,0,0,1-3.386-2.957,12.844,12.844,0,0,1-.162-2.054q-.023-19.9-.023-39.791c0-.266.029-.532.007-.8-.11-1.334-.552-1.752-1.908-1.755-3.766-.01-7.534,0-11.3-.006-.477,0-.956-.018-1.432-.005a2.693,2.693,0,0,1-2.946-2.668,13.422,13.422,0,0,1-.208-3.324c.265-2.262,1.034-3.572,3.347-3.547,3.448.039,6.9,0,10.346,0q13.847,0,27.694,0c1.163,0,2.267-.012,3.15,1.074a2.656,2.656,0,0,1,.658,1.694c.04,1.219.054,2.441.024,3.66-.053,2.156-.934,3.074-3.123,3.1-4.085.048-8.171.013-12.256.032-.67,0-1.34.1-2.121.168" transform="translate(235.798 -1977.865)" fill="#fff"/>
  </g>
</svg>
