<svg xmlns="http://www.w3.org/2000/svg" width="75.287" height="99.97" viewBox="0 0 75.287 99.97">
  <g id="Grupo_2" data-name="Grupo 2" transform="translate(-329 1507)">
    <path id="Trazado_9" data-name="Trazado 9" d="M311.912,537.908c1.224,0,2.447-.016,3.67.006a3.012,3.012,0,0,1,2.04.534.957.957,0,0,0,.478.144c2.043.253,3.69,1.381,5.448,2.328a22.567,22.567,0,0,1,6.009,5.263,18.2,18.2,0,0,1,1.962,3.147c.39.685.673,1.43,1.028,2.139a17.862,17.862,0,0,1,1.56,9.09,3.715,3.715,0,0,1-.965,2.393,7.2,7.2,0,0,1-2.081,1.434c-1.525.83-2.877.235-4.09-.311a3.58,3.58,0,0,1-2.156-2.731c-.237-1.712-.424-3.437-.8-5.12a11.007,11.007,0,0,0-1.85-3.623,12.745,12.745,0,0,0-4.125-3.726,10.9,10.9,0,0,0-2.9-1.1,12.825,12.825,0,0,0-6.263-.058,13.792,13.792,0,0,0-3.182,1.345,8.835,8.835,0,0,0-2.658,1.976,14.15,14.15,0,0,0-3.084,5.035,16.4,16.4,0,0,0-.653,4.318,4.272,4.272,0,0,1-3.262,3.931c-.522.14-1.063.513-1.546.442a5.141,5.141,0,0,1-4.365-2.859,8.026,8.026,0,0,1-.337-5.064c.131-.747.333-1.48.458-2.227a15.189,15.189,0,0,1,1.363-3.74,22.384,22.384,0,0,1,.982-2.1,22.793,22.793,0,0,1,4.935-5.92,23.233,23.233,0,0,1,4.659-3.042,7.307,7.307,0,0,1,3.283-1.183.527.527,0,0,0,.249-.032c1.96-1.074,4.117-.639,6.193-.693" transform="translate(54.798 -2044.865)" fill="#fff"/>
    <path id="Trazado_10" data-name="Trazado 10" d="M321.314,637.835H284.862c-.323,0-.628-.008-.9-.015-.249-.006-.485-.013-.678-.011a8.56,8.56,0,0,1-7.269-4.023,9.853,9.853,0,0,1-1.748-5.69c.054-6.778.062-13.5.065-19.811,0-.432-.027-.928-.056-1.454-.036-.633-.076-1.352-.075-2.108q.011-6.1.032-12.2c.019-6.406.037-13.032.037-19.544,0-1.42-.05-7.338-.065-9.12a5.747,5.747,0,0,1,9.673-4.246c1.79,1.674,7.694,7.2,8.523,8,1.651,1.594,3.128,3.048,4.516,4.448.919.927,1.836,1.868,2.722,2.778.942.969,1.917,1.97,2.875,2.934.828.831,1.7,1.678,2.538,2.5.758.74,1.543,1.505,2.318,2.278.683.68,1.347,1.366,1.99,2.029.6.621,1.169,1.207,1.747,1.785.175.176.425.414.738.705.313-.291.563-.529.738-.705.578-.578,1.146-1.164,1.746-1.785.644-.663,1.309-1.349,1.991-2.029.774-.773,1.559-1.538,2.319-2.278.84-.819,1.709-1.666,2.536-2.5.959-.964,1.933-1.965,2.877-2.934.886-.91,1.8-1.851,2.72-2.778,1.388-1.4,2.866-2.854,4.516-4.448.56-.54,4.591-4.654,8.337-8.493a5.747,5.747,0,0,1,9.859,4.063c-.031,3.986-.065,8.655-.065,9.8,0,6.512.02,13.138.039,19.544q.016,6.1.03,12.2c0,.756-.039,1.475-.074,2.108-.029.526-.057,1.022-.057,1.452,0,6.309.012,13.035.067,19.813a9.868,9.868,0,0,1-1.749,5.69,8.571,8.571,0,0,1-7.268,4.023c-.194,0-.43,0-.68.011-.269.007-.575.015-.9.015H321.314" transform="translate(54.798 -2044.865)" fill="#fff"/>
  </g>
</svg>
